# xmcd
#
# Track frame offsets:
#	150
#	14347
#	31432
#	46210
#	58285
#	67700
#	85400
#	100620
#	128632
#	151952
#	156245
#	199692
#	214332
#	217825
#	233362
#	249397
#
# Disc length: 3478 seconds
#
# Revision: 3
# Processed by: cddbd v1.5.2PL0 Copyright (c) Steve Scherf et al.
# Submitted via: audiograbber 1.83.01
#
DISCID=cb0d9410
DTITLE=Immortal Technique - Revolutionary Vol. 1
DYEAR=2001
DGENRE=Hip-Hop
TTITLE0=Immortal Technique - Creation and Destruction
TTITLE1=Immortal Technique - Dominant Species
TTITLE2=Immortal Technique, BigZoo - Positive Balance
TTITLE3=Immortal Technique - The Getaway
TTITLE4=Immortal Technique - Beef and Broccoli
TTITLE5=Immortal Technique, Dj BlackPanther - No Me Importa
TTITLE6=Immortal Technique, Poison Pen - Top Of The Food Chain RMX
TTITLE7=Immortal Technique - The Poverty Of Philosophy
TTITLE8=Immortal Technique - Revolutionary
TTITLE9=Immortal Technique - Spend Some Time RMX
TTITLE10=Immortal Technique - Dance With The Devil
TTITLE11=Immortal Technique - The Prophecy
TTITLE12=Immortal Technique - Understand Why
TTITLE13=Immortal Technique - No Mercy
TTITLE14=Immortal Technique, Jean Grae, Pumpkinhead - The Illest
TTITLE15=Immortal Technique, Diabolic - Speak Your Mind
EXTD=RapMusicGuide.com
EXTT0=
EXTT1=
EXTT2=
EXTT3=
EXTT4=
EXTT5=
EXTT6=
EXTT7=
EXTT8=
EXTT9=
EXTT10=
EXTT11=
EXTT12=
EXTT13=
EXTT14=
EXTT15=
PLAYORDER=
